<?xml version="1.0" standalone="no"?>
<!DOCTYPE svg PUBLIC "-//W3C//DTD SVG 1.1//EN" "http://www.w3.org/Graphics/SVG/1.1/DTD/svg11.dtd" >
<svg>
<metadata>
Created by FontForge 20090622 at Tue Sep  6 04:48:34 2016
 By ffonts
Esphimere &#194;&#169;Dichi. 2015. All Rights Reserved
</metadata>
<defs>
<font id="Esphimere-Light" horiz-adv-x="577" >
  <font-face
    font-family="Esphimere-Light"
    font-weight="300"
    font-stretch="normal"
    units-per-em="1000"
    panose-1="2 11 4 3 3 2 2 2 2 4"
    ascent="800"
    descent="-200"
    x-height="544"
    cap-height="742"
    bbox="-43 -232 1097 926"
    underline-thickness="50"
    underline-position="-50"
    unicode-range="U+001D-U+FFFD"
  />
<missing-glyph horiz-adv-x="558"
d="M509 751v-734h-460v734h460zM109 695v-622h340v622h-340z" />
    <glyph glyph-name="uniF001" unicode="fi" horiz-adv-x="553"
d="M481 762v-113h-60v113h60zM481 547v-546h-60v494h-271v-494h-60v494h-69v52h69v48q0 167 191 167q42 0 95 -15v-54q-59 18 -95 19q-131 0 -131 -120v-45h331z" />
    <glyph glyph-name="uniF002" unicode="fl" horiz-adv-x="655"
d="M421 749l41 -10v-568q0 -116 90 -116l92 4v-46l-89 -13q-152 0 -152 173v523q-68 15 -124 16q-132 0 -132 -120v-45h195v-52h-195v-494h-60v494h-67v52h67v48q0 167 192 167q59 0 142 -13z" />
    <glyph glyph-name="uniFB00" unicode="ff" horiz-adv-x="724"
d="M157 495v-494h-60v494h-68v52h68v48q0 167 191 167q42 0 96 -15v-54q-60 18 -96 19q-131 0 -131 -120v-45h302v48q0 167 191 167q43 0 97 -15v-54q-59 18 -97 19q-131 0 -131 -120v-45h195v-52h-195v-494h-60v494h-302z" />
    <glyph glyph-name="uniFB03" unicode="ffi" horiz-adv-x="905"
d="M852 762v-113h-60v113h60zM852 547v-546h-60v494h-272v-494h-60v494h-303v-494h-60v494h-68v52h68v48q0 167 192 167q42 0 95 -15v-54q-59 18 -95 19q-132 0 -132 -120v-45h303v48q0 167 192 167q42 0 96 -15v-54q-61 18 -96 19q-132 0 -132 -120v-45h332z" />
    <glyph glyph-name="uniFB04" unicode="ffl" horiz-adv-x="1027"
d="M459 495h-302v-494h-60v494h-68v52h68v48q0 167 192 167q42 0 95 -15v-54q-59 18 -96 19q-131 0 -131 -120v-45h302v48q0 167 192 167q59 0 143 -13l41 -10v-568q0 -116 89 -116l92 4v-46l-89 -13q-151 0 -151 173v523q-69 15 -125 16q-132 0 -132 -120v-45h195v-52h-195
v-494h-60v494z" />
    <glyph glyph-name=".notdef" horiz-adv-x="558"
d="M509 751v-734h-460v734h460zM109 695v-622h340v622h-340z" />
    <glyph glyph-name=".null" horiz-adv-x="0"
 />
    <glyph glyph-name=".null" horiz-adv-x="0"
 />
    <glyph glyph-name="nonmarkingreturn" horiz-adv-x="533"
 />
    <glyph glyph-name="space" unicode=" " horiz-adv-x="227"
 />
    <glyph glyph-name="space" unicode="&#xa0;" horiz-adv-x="227"
 />
    <glyph glyph-name="exclam" unicode="!" horiz-adv-x="221"
d="M153 121v-120h-69v120h69zM153 744l-6 -539h-57l-6 539h69z" />
    <glyph glyph-name="quotedbl" unicode="&#x22;" horiz-adv-x="304"
d="M48 769h63v-131l-11 -149h-42l-10 149v131zM192 769h63v-131l-11 -149h-40l-12 149v131z" />
    <glyph glyph-name="numbersign" unicode="#" horiz-adv-x="707"
d="M442 284l15 184h-196l-16 -184h197zM182 231h-123v53h128l14 184h-122v53h127l14 160l57 2l-12 -162h197l13 160l59 2l-14 -162h116v-53h-119l-16 -184h115v-53h-121l-14 -182h-57l13 182h-196l-13 -182h-62z" />
    <glyph glyph-name="dollar" unicode="$" horiz-adv-x="574"
d="M314 326v-272q146 1 149 119v60q0 53 -149 93v0zM255 686q-152 -4 -152 -106v-73q4 -61 138 -97l14 -5v281zM314 741l187 -5v-52l-187 2v-301l21 -6q190 -50 191 -146v-60q-9 -175 -212 -175v-100h-59v101l-204 2v55l204 -2v293l-33 10q-173 48 -180 148v75
q0 156 213 161v89h59v-89z" />
    <glyph glyph-name="percent" unicode="%" horiz-adv-x="826"
d="M48 571q0 169 163 169q166 0 166 -169v-49q0 -159 -166 -159q-163 0 -163 159v49zM210 418q106 0 106 103v48q0 116 -106 116q-101 0 -101 -116v-48q0 -103 101 -103zM128 -2l487 744h71l-486 -744h-72zM449 204q0 169 164 169q165 0 165 -169v-48q0 -159 -165 -159
q-164 0 -164 159v48zM611 52q106 0 106 102v48q0 116 -106 116q-101 0 -101 -116v-48q0 -102 101 -102z" />
    <glyph glyph-name="ampersand" unicode="&#x26;" horiz-adv-x="646"
d="M210 343q-62 -7 -74 -58q-23 -154 27 -197q36 -31 160 -32q66 2 116 25q-9 19 -9 80v182h-220zM470 33q-64 -28 -146 -32q-153 1 -205 48q-41 35 -48 131q-11 186 92 203v-22q-103 17 -92 203q7 96 48 131q52 46 205 47l123 -11l21 -53l-146 9q-123 0 -159 -31
q-50 -43 -27 -197q12 -51 75 -61h219v120h59v-120h123v-55h-123v-192q3 -93 67 -95l59 4v-44l-53 -15q-66 0 -92 32z" />
    <glyph glyph-name="quotesingle" unicode="'" horiz-adv-x="220"
d="M50 769h63v-131l-10 -149h-42l-11 149v131z" />
    <glyph glyph-name="parenleft" unicode="(" horiz-adv-x="265"
d="M234 822q-91 -243 -91 -467q0 -236 93 -485h-60q-97 243 -97 478q0 230 101 474h54z" />
    <glyph glyph-name="parenright" unicode=")" horiz-adv-x="276"
d="M39 -130q90 233 90 467q0 236 -91 485h60q96 -244 96 -478q0 -241 -102 -474h-53z" />
    <glyph glyph-name="asterisk" unicode="*" horiz-adv-x="392"
d="M151 575v137h63v-136l102 38l28 -48l-110 -48l72 -109l-49 -32l-74 105l-79 -105l-45 34l75 107l-115 49l28 46z" />
    <glyph glyph-name="plus" unicode="+" horiz-adv-x="486"
d="M206 335h-190v53h190v214h59v-214h190v-53h-190v-212h-59v212z" />
    <glyph glyph-name="comma" unicode="," horiz-adv-x="166"
d="M70 120h61l-62 -232h-59z" />
    <glyph glyph-name="hyphen" unicode="-" horiz-adv-x="337"
d="M298 312v-55h-281v55h281z" />
    <glyph glyph-name="hyphen" unicode="&#xad;" horiz-adv-x="337"
d="M298 312v-55h-281v55h281z" />
    <glyph glyph-name="period" unicode="." horiz-adv-x="151"
d="M105 114v-113h-59v113h59z" />
    <glyph glyph-name="slash" unicode="/" horiz-adv-x="345"
d="M269 751h67l-246 -750h-65z" />
    <glyph glyph-name="zero" unicode="0"
d="M525 440v-137q0 -302 -216 -302h-33q-224 0 -224 302v137q0 302 224 302h33q216 0 216 -302zM276 687q-165 0 -165 -251v-130q0 -250 165 -250h33q156 0 156 250v130q0 251 -156 251h-33z" />
    <glyph glyph-name="one" unicode="1" horiz-adv-x="366"
d="M314 1h-59v683l-203 -59v53l228 64h34v-741z" />
    <glyph glyph-name="two" unicode="2"
d="M525 -1h-473v28q7 153 97 227l220 162q73 51 81 106v23q-12 108 -88 133q-49 17 -82 18q-97 -5 -210 -9v50q111 12 207 13q55 0 111 -23q106 -42 121 -181v-25q-3 -75 -100 -145l-221 -163q-74 -65 -74 -159h411v-55z" />
    <glyph glyph-name="three" unicode="3" horiz-adv-x="588"
d="M369 343h-231v55h231q64 10 72 62q24 153 -25 196q-37 31 -159 31l-186 -8v52l185 11q151 -1 204 -47q40 -35 47 -131q11 -186 -92 -203v22q103 -17 92 -203q-7 -96 -47 -131q-53 -47 -204 -48l-203 12v52l204 -9q122 1 159 32q49 43 25 196q-8 52 -72 59z" />
    <glyph glyph-name="four" unicode="4" horiz-adv-x="624"
d="M496 265h76v-55h-76v-209h-59v209h-385v34q0 23 7 33l335 453q9 12 33 12h69v-477zM437 682h-4l-314 -417h318v417z" />
    <glyph glyph-name="five" unicode="5"
d="M502 687h-391v-233l181 7q233 0 233 -212v-29q0 -222 -233 -222l-240 13v57l241 -13q172 0 172 165v29q0 153 -173 158l-199 -10q-38 0 -41 34v311h450v-55z" />
    <glyph glyph-name="six" unicode="6"
d="M461 675q-106 14 -194 14q-155 0 -156 -180v-61q140 39 210 39q203 0 204 -236v-6q-1 -244 -206 -245h-52q-215 1 -215 245v264q0 235 216 235q89 -3 193 -17v-52zM111 390v-144q7 -190 156 -191h52q146 1 147 191v5q-1 181 -145 181q-64 0 -210 -42z" />
    <glyph glyph-name="seven" unicode="7" horiz-adv-x="596"
d="M523 685l-259 -684h-61l256 686h-407v55h426q66 0 45 -57z" />
    <glyph glyph-name="eight" unicode="8"
d="M293 349h-12q-165 0 -166 -105v-49q2 -138 166 -138h12q167 0 167 139v49q0 104 -167 104zM451 528v29q0 132 -158 132h-12q-156 0 -156 -132v-29q0 -124 156 -124h12q158 0 158 124zM158 378v12q-94 30 -94 148v19q0 191 217 191h12q220 0 220 -191v-29q0 -108 -95 -138
v-10q107 -16 107 -135v-49q0 -198 -232 -198h-12q-229 0 -229 198v49q0 119 106 133z" />
    <glyph glyph-name="nine" unicode="9"
d="M106 70q112 -14 204 -15q154 0 155 181v61q-139 -39 -210 -39q-202 0 -203 235v6q1 244 205 245h53q214 -1 215 -245v-263q-1 -236 -216 -236q-94 5 -203 17v53zM465 355v144q-6 190 -155 190h-53q-146 0 -146 -190v-5q0 -181 144 -181q65 0 210 42z" />
    <glyph glyph-name="colon" unicode=":" horiz-adv-x="183"
d="M121 498v-114h-59v114h59zM121 114v-113h-59v113h59z" />
    <glyph glyph-name="semicolon" unicode=";" horiz-adv-x="212"
d="M151 504v-114h-59v114h59zM94 120h61l-62 -232h-59z" />
    <glyph glyph-name="semicolon" unicode="&#x37e;" horiz-adv-x="212"
d="M151 504v-114h-59v114h59zM94 120h61l-62 -232h-59z" />
    <glyph glyph-name="less" unicode="&#x3c;" horiz-adv-x="499"
d="M458 599v-64l-343 -180l343 -176v-69l-436 223v43z" />
    <glyph glyph-name="equal" unicode="=" horiz-adv-x="546"
d="M489 314v-55h-441v55h441zM489 449v-55h-441v55h441z" />
    <glyph glyph-name="greater" unicode="&#x3e;" horiz-adv-x="515"
d="M497 376v-43l-437 -223v69l343 176l-343 180v64z" />
    <glyph glyph-name="question" unicode="?" horiz-adv-x="524"
d="M46 721q117 21 221 21q210 -3 210 -177v-33q0 -100 -132 -147q-78 -45 -78 -120v-74h-62v77q0 116 111 168q98 54 98 96v33q0 115 -150 115q-100 0 -218 -11v52zM267 112v-113h-60v113h60z" />
    <glyph glyph-name="at" unicode="@" horiz-adv-x="1025"
d="M634 420q-107 70 -150 70q-1 0 -5 -1q-97 -5 -104 -120q-2 -78 -2 -153q0 -68 64 -68q0 -1 5 1q77 0 189 80zM700 75q-71 13 -73 84v-3q-101 -66 -186 -68q-133 10 -133 141q0 74 1 149q12 162 168 172q72 0 163 -61l4 58l58 2l-24 -362h6q1 -59 22 -59q172 7 182 191
q0 204 -91.5 295t-293.5 91q-201 0 -292.5 -91t-91.5 -295q0 -203 91.5 -294t292.5 -91h26v-55h-26q-242 0 -344.5 105.5t-102.5 334.5q0 230 107.5 335.5t339.5 105.5q233 0 340.5 -105.5t107.5 -336.5q-17 -243 -235 -243h-16z" />
    <glyph glyph-name="A" unicode="A" horiz-adv-x="608"
d="M535 -1l-82 228h-301l-82 -228h-60l231 704q13 39 56 39h10q44 0 56 -39l232 -704h-60zM438 283l-139 398v0l-131 -398h270z" />
    <glyph glyph-name="B" unicode="B" horiz-adv-x="651"
d="M75 1v741h266q224 -1 224 -194q-9 -157 -118 -170q126 -17 137 -175q0 -202 -244 -202h-265zM357 405q146 6 147 143q0 140 -164 140h-206v-283h223zM341 56q182 0 182 144q-7 143 -166 147h-223v-291h207z" />
    <glyph glyph-name="C" unicode="C" horiz-adv-x="575"
d="M538 23q-118 -17 -248 -22q-257 0 -257 370q0 371 257 371q130 -3 249 -20v-48q-119 13 -246 14q-201 0 -201 -317t201 -317q127 2 245 15v-46z" />
    <glyph glyph-name="D" unicode="D" horiz-adv-x="687"
d="M75 -2v747h284q259 0 259 -374q0 -373 -259 -373h-284zM359 48q199 0 199 323q0 322 -199 322h-226v-645h226z" />
    <glyph glyph-name="E" unicode="E" horiz-adv-x="590"
d="M554 687h-354q-82 0 -82 -87v-203h349v-54h-349v-203q0 -86 82 -86h352v-47l-352 -8q-142 0 -142 141v460q1 142 142 142l354 -9v-46z" />
    <glyph glyph-name="F" unicode="F" horiz-adv-x="626"
d="M571 687h-354q-82 0 -82 -87v-203h349v-54h-349v-344h-60v601q1 142 142 142l354 -9v-46z" />
    <glyph glyph-name="G" unicode="G" horiz-adv-x="632"
d="M545 687h-235q-201 0 -216 -283v-81q0 -269 209 -269h203v281h-230v55h289v-391h-262q-270 0 -270 324v81q19 338 278 338l234 -9v-46z" />
    <glyph glyph-name="H" unicode="H" horiz-adv-x="657"
d="M134 742v-342h381v342h59v-743h-59v346h-382v-344h-58v741h59z" />
    <glyph glyph-name="I" unicode="I" horiz-adv-x="217"
d="M134 742v-743h-59v743h59z" />
    <glyph glyph-name="J" unicode="J" horiz-adv-x="413"
d="M330 742v-526q-14 -206 -216 -214l-88 -1v55h87q150 1 157 161v525h60z" />
    <glyph glyph-name="K" unicode="K" horiz-adv-x="642"
d="M138 742v-357h23l310 357h81l-341 -391v13l342 -365h-81l-311 330h-23v-330h-63v743h63z" />
    <glyph glyph-name="L" unicode="L" horiz-adv-x="550"
d="M133 742v-548q0 -137 70 -137h324v-56h-324q-133 0 -133 193v548h63z" />
    <glyph glyph-name="M" unicode="M" horiz-adv-x="766"
d="M75 1v705q0 37 39 37h20q31 0 47 -33l216 -529h-17l199 528q12 33 44 33h22q38 0 38 -36v-705h-60v689h10l-202 -529q-14 -31 -35 -31h-16q-21 0 -37 30l-217 530h8v-689h-59z" />
    <glyph glyph-name="N" unicode="N" horiz-adv-x="642"
d="M75 1v705q0 37 49 37h18q34 0 47 -33l319 -653h-1v685h60v-705q0 -36 -50 -36h-16q-29 0 -47 40l-318 649h-2v-689h-59z" />
    <glyph glyph-name="O" unicode="O" horiz-adv-x="655"
d="M586 420v-97q0 -322 -244 -322h-65q-244 0 -244 322v97q0 322 244 322h65q244 0 244 -322zM276 687q-184 0 -184 -270v-92q0 -271 184 -271h71q179 0 179 271v92q0 270 -179 270h-71z" />
    <glyph glyph-name="P" unicode="P" horiz-adv-x="654"
d="M75 1v741h294q231 0 231 -227q0 -229 -231 -229h-235v-285h-59zM369 336q172 0 172 179q0 177 -172 177h-235v-356h235z" />
    <glyph glyph-name="Q" unicode="Q" horiz-adv-x="662"
d="M493 138q34 52 34 187v92q0 270 -180 270h-70q-184 0 -184 -270v-92q0 -271 184 -271h70q80 0 114 41l-190 157l36 41zM539 102l61 -51l-36 -41l-58 49q-50 -58 -162 -58h-66q-245 0 -245 322v97q0 322 245 322h66q243 0 243 -322v-97q0 -152 -48 -221z" />
    <glyph glyph-name="R" unicode="R" horiz-adv-x="659"
d="M369 336q172 0 172 179q-1 177 -172 177h-234v-356h234zM386 286h-251v-287h-60v743h294q231 -1 231 -228q-6 -200 -151 -223l154 -292h-66z" />
    <glyph glyph-name="S" unicode="S" horiz-adv-x="574"
d="M501 736v-52l-214 3q-184 0 -184 -107v-73q4 -61 139 -97l93 -31q190 -50 191 -146v-60q-9 -175 -229 -175l-246 3v55l240 -3q169 0 172 120v60q0 53 -149 93l-92 31q-173 48 -180 148v75q0 162 245 162z" />
    <glyph glyph-name="T" unicode="T" horiz-adv-x="595"
d="M570 742v-55h-234v-688h-59v688h-251v55h544z" />
    <glyph glyph-name="U" unicode="U" horiz-adv-x="669"
d="M129 742v-482q0 -203 190 -203h19q195 0 195 203v482h59v-482q0 -258 -254 -258h-19q-249 0 -249 258v482h59z" />
    <glyph glyph-name="V" unicode="V" horiz-adv-x="655"
d="M93 742l233 -682h3l235 682h72l-252 -701q-15 -42 -47 -42h-19q-34 0 -48 42l-245 701h68z" />
    <glyph glyph-name="W" unicode="W" horiz-adv-x="950"
d="M484 684v0l-149 -655q-10 -30 -42 -30h-29q-36 0 -42 32l-193 711h67l176 -682h9l141 648q8 34 41 34h41q32 0 40 -34l136 -648h8l154 682h70l-166 -712q-15 -31 -45 -31h-29q-34 0 -46 31z" />
    <glyph glyph-name="X" unicode="X" horiz-adv-x="631"
d="M318 403h-1l214 339h77l-242 -370l242 -371h-77l-214 339h1l-219 -339h-76l241 371l-241 370h76z" />
    <glyph glyph-name="Y" unicode="Y" horiz-adv-x="633"
d="M98 741l226 -450h-17l235 450h73l-267 -501v-241h-65v241l-258 501h73z" />
    <glyph glyph-name="Z" unicode="Z" horiz-adv-x="568"
d="M558 742v-22q0 -21 -9 -37l-442 -649v23h451v-56h-514v23q0 21 8 36l443 650v-23h-453v55h516z" />
    <glyph glyph-name="bracketleft" unicode="[" horiz-adv-x="335"
d="M49 781h237v-55h-171v-832h171v-55h-237v942z" />
    <glyph glyph-name="backslash" unicode="\" horiz-adv-x="411"
d="M361 1h-66l-245 750h67z" />
    <glyph glyph-name="bracketright" unicode="]" horiz-adv-x="335"
d="M286 -161h-237v55h170v832h-170v55h237v-942z" />
    <glyph glyph-name="asciicircum" unicode="^" horiz-adv-x="562"
d="M273 733h16q27 0 39 -24l184 -352l-64 -2l-177 323h14l-170 -323l-65 2l185 351q11 25 38 25z" />
    <glyph glyph-name="underscore" unicode="_" horiz-adv-x="610"
d="M561 -28v-56h-512v56h512z" />
    <glyph glyph-name="grave" unicode="`" horiz-adv-x="338"
d="M52 724h102l132 -149h-82z" />
    <glyph glyph-name="a" unicode="a" horiz-adv-x="515"
d="M389 277h-216q-86 -7 -89 -104q-2 -125 98 -122q62 2 207 85v141zM235 547q213 -10 213 -195v-353h-49l-8 78q-134 -77 -208 -78q-158 0 -158 175q4 149 147 155h217v47q-9 111 -155 118q-77 0 -159 -10l-4 51q85 12 164 12z" />
    <glyph glyph-name="b" unicode="b" horiz-adv-x="572"
d="M276 54h37q146 0 146 189v58q0 188 -146 188h-37q-51 0 -146 -17v-367q109 -49 146 -51zM275 542h38q205 0 205 -241v-58q0 -244 -205 -244h-37q-45 0 -147 48l-3 -48h-56v751h60v-225q91 13 145 17z" />
    <glyph glyph-name="c" unicode="c" horiz-adv-x="472"
d="M437 -2l-197 -3q-207 0 -207 275q0 276 207 276l197 -3v-52l-194 3q-151 0 -151 -224q0 -226 151 -226l194 3v-49z" />
    <glyph glyph-name="d" unicode="d" horiz-adv-x="547"
d="M421 105v367q-96 17 -147 17h-37q-145 0 -145 -188v-58q0 -189 145 -189h37q37 2 147 51zM421 525v225h59v-751h-57l-2 48q-102 -48 -147 -48h-37q-204 0 -204 244v58q0 241 204 241h38q54 -4 146 -17z" />
    <glyph glyph-name="e" unicode="e" horiz-adv-x="517"
d="M96 212q11 -160 174 -160q48 0 167 10l21 -46q-88 -19 -191 -19q-232 0 -232 273q9 274 179 274h82q170 0 176 -205q-6 -127 -92 -127h-284zM413 339q-2 152 -118 153h-83q-117 -1 -119 -229h286q34 3 34 76z" />
    <glyph glyph-name="f" unicode="f" horiz-adv-x="382"
d="M95 1v494h-66v52h66v48q0 167 193 167q42 0 96 -15v-54q-59 18 -96 19q-132 0 -132 -120v-45h195v-52h-195v-494h-61z" />
    <glyph glyph-name="g" unicode="g" horiz-adv-x="580"
d="M124 381v-43q0 -113 134 -113h40q134 0 134 113v43q0 113 -134 113h-40q-134 0 -134 -113zM94 -52v-23q0 -103 154 -103h76q143 0 143 122v14q0 84 -143 84q-148 1 -164 8q-61 -39 -66 -102zM182 98q9 -6 65 -4h77q204 0 204 -136v-14q0 -175 -204 -175h-79
q-211 0 -211 156v23q0 66 89 126q-17 9 -17 49v26q4 32 24 53q-67 34 -67 136v43q0 166 195 166h40q80 0 99 -10h156v-50h-82q20 -15 22 -106v-43q0 -166 -195 -166h-33q-50 2 -81 8q-15 -20 -16 -32v-24q1 -21 14 -26z" />
    <glyph glyph-name="h" unicode="h" horiz-adv-x="580"
d="M129 762v-252q81 35 204 37q178 -2 180 -166v-380h-59v379q0 114 -115 114q-116 0 -210 -44v-449h-59v761h59z" />
    <glyph glyph-name="i" unicode="i" horiz-adv-x="196"
d="M129 547v-546h-59v546h59zM129 762v-113h-59v113h59z" />
    <glyph glyph-name="j" unicode="j" horiz-adv-x="309"
d="M226 556v-572q0 -184 -201 -192v53q140 0 141 139v572h60zM226 772v-112h-60v112h60z" />
    <glyph glyph-name="k" unicode="k" horiz-adv-x="494"
d="M131 289h11l255 256h79l-296 -291v18l298 -273h-80l-257 238h-10v-238h-61v761h61v-471z" />
    <glyph glyph-name="l" unicode="l" horiz-adv-x="311"
d="M126 762v-590q0 -107 90 -115q35 0 93 18v-58q-52 -16 -92 -16q-150 0 -150 173v588h59z" />
    <glyph glyph-name="m" unicode="m" horiz-adv-x="830"
d="M392 -1v304q-3 165 -83 189h-52q-37 -2 -137 -51v-442h-59v548h52l5 -48q94 48 138 48h56q64 0 99 -70q71 59 136 70h49q167 0 167 -244v-304h-58v304q0 189 -109 189h-46q-34 -2 -116 -63q16 -74 16 -126v-304h-58z" />
    <glyph glyph-name="n" unicode="n" horiz-adv-x="551"
d="M120 -1h-59v548h54l4 -62q91 62 138 62h65q175 0 175 -244v-304h-58v304q0 189 -117 189h-64q-37 -2 -138 -69v-424z" />
    <glyph glyph-name="o" unicode="o" horiz-adv-x="549"
d="M495 301v-58q0 -242 -205 -242h-57q-200 0 -200 242v58q0 243 200 243h57q205 0 205 -243zM233 489q-137 0 -137 -188v-58q0 -189 137 -189h57q145 0 145 189v58q0 188 -145 188h-57z" />
    <glyph glyph-name="p" unicode="p" horiz-adv-x="562"
d="M120 441v-367q95 -17 146 -17h37q146 0 146 189v57q0 189 -146 189h-37q-37 -2 -146 -51zM120 21v-225h-59v751h56l3 -48q101 48 146 48h37q205 0 205 -244v-57q0 -242 -205 -242h-38q-54 4 -145 17z" />
    <glyph glyph-name="q" unicode="q" horiz-adv-x="550"
d="M274 492h-37q-145 0 -145 -189v-57q0 -189 145 -189h37q51 0 147 17v367q-110 49 -147 51zM276 4h-39q-204 0 -204 242v57q0 244 204 244h37q45 0 147 -48l3 48h56v-751h-59v225q-92 -13 -145 -17z" />
    <glyph glyph-name="r" unicode="r" horiz-adv-x="398"
d="M374 488q-68 4 -117 4q-62 -2 -137 -68v-425h-59v548h54l4 -57q62 57 138 57q50 0 117 -5v-54z" />
    <glyph glyph-name="s" unicode="s" horiz-adv-x="501"
d="M430 539v-47l-216 2q-123 0 -123 -72v-56q3 -48 75 -55l142 -14q138 -20 140 -116v-50q0 -131 -172 -131l-237 8v48l233 -3q117 4 117 78v50q-2 45 -90 62l-141 14q-120 8 -128 108v57q2 125 184 125z" />
    <glyph glyph-name="t" unicode="t" horiz-adv-x="385"
d="M151 670v-123h196v-52h-196v-344q2 -93 65 -95l134 4v-47l-128 -12q-131 0 -131 160v334h-74v52h74v123h60z" />
    <glyph glyph-name="u" unicode="u" horiz-adv-x="554"
d="M428 547h59v-548h-54l-4 77q-91 -77 -138 -77h-66q-175 0 -175 244v304h58v-304q0 -189 117 -189h66q34 2 137 97v396z" />
    <glyph glyph-name="v" unicode="v" horiz-adv-x="519"
d="M74 547l183 -487h-4l183 487h65l-181 -497q-18 -49 -59 -49h-15q-41 0 -56 51l-180 495h64z" />
    <glyph glyph-name="w" unicode="w" horiz-adv-x="722"
d="M679 547l-92 -516q-6 -32 -37 -32h-33q-28 0 -39 31l-127 463h7l-112 -462q-7 -32 -38 -32h-37q-30 0 -36 32l-110 516h63l106 -494h-5l115 465q6 29 39 29h24q30 0 37 -28l129 -466h-5l91 494h60z" />
    <glyph glyph-name="x" unicode="x" horiz-adv-x="486"
d="M253 300l155 247h69l-175 -273l175 -273h-69l-155 246h3l-169 -246h-67l185 273l-185 273h67l169 -247h-3z" />
    <glyph glyph-name="y" unicode="y" horiz-adv-x="542"
d="M293 52l166 495h65l-179 -539q-63 -195 -255 -197v51q150 10 187 136v0q-18 0 -32 34l-215 515h69l195 -480q0 -15 3 -15h-4z" />
    <glyph glyph-name="z" unicode="z" horiz-adv-x="473"
d="M438 547v-18q0 -26 -19 -55l-311 -418h330v-55h-405v27q0 16 16 43l311 420h-326v56h404z" />
    <glyph glyph-name="braceleft" unicode="{" horiz-adv-x="426"
d="M149 59q0 59 -2 99t-11.5 67t-27 45t-59.5 28v51q32 5 49 19t27.5 32.5t16.5 43.5t6 58q0 73 4 128t24 95t62.5 60t111.5 20h27v-52q-57 0 -80.5 -7.5t-42.5 -24.5t-30.5 -44.5t-11.5 -116.5v-6q0 -56 -4 -95t-15 -66.5t-28 -46t-26 -23.5q9 -5 26 -22.5t28 -45.5
t15 -66.5t4 -95.5v-8q0 -87 11.5 -114.5t30.5 -44t42.5 -24.5t80.5 -8v-53q-74 0 -116 13.5t-67.5 40.5t-35 68t-9.5 96z" />
    <glyph glyph-name="bar" unicode="|" horiz-adv-x="163"
d="M49 818h65v-980h-65v980z" />
    <glyph glyph-name="braceright" unicode="}" horiz-adv-x="426"
d="M266.5 -37q-10.5 -41 -35 -68t-66.5 -40.5t-116 -13.5v53q57 0 80.5 8t42.5 24.5t30.5 44t11.5 114.5v8q0 57 4 95.5t14.5 66.5t28 45.5t26.5 22.5q-9 5 -26.5 23.5t-28 46t-14.5 66.5t-4 95v6q0 89 -11.5 116.5t-30.5 44.5t-42.5 24.5t-80.5 7.5v52h26q70 0 112.5 -20
t62.5 -60t24 -95t4 -128q0 -33 5.5 -58t16.5 -43.5t28 -32.5t49 -19v-51q-43 -10 -60.5 -28t-26.5 -45t-11 -67t-2 -99q0 -55 -10.5 -96z" />
    <glyph glyph-name="asciitilde" unicode="~" horiz-adv-x="610"
d="M561 425q0 -203 -138 -203q-90 1 -143 81q-42 78 -104 78q-69 0 -69 -144h-58q0 199 127 199q99 0 141 -82q43 -77 106 -77q81 0 81 148h57z" />
    <glyph glyph-name="exclamdown" unicode="&#xa1;" horiz-adv-x="166"
d="M50 428v119h68v-119h-68zM49 -216l5 540h58l5 -540h-68z" />
    <glyph glyph-name="cent" unicode="&#xa2;" horiz-adv-x="539"
d="M266 44l172 3v-49l-172 -3v-115h-58v115q-175 11 -175 275q0 263 175 275v99h58v-99l172 -2v-52l-172 3v-450zM208 492q-115 -10 -115 -222q0 -214 115 -224v446z" />
    <glyph glyph-name="sterling" unicode="&#xa3;" horiz-adv-x="544"
d="M53 56q79 106 86 177v139h-84v54h84v85q0 228 199 228h145v-52h-139q-140 0 -140 -176v-85h227v-54h-227v-142q-3 -84 -71 -169h358v-56h-438v51z" />
    <glyph glyph-name="currency" unicode="&#xa4;" horiz-adv-x="393"
d="M150 238q11 -15 28 -19q10 -2 19 -2t17 1q18 5 30 20q14 13 20 32q3 12 3 21t-3 19q-6 21 -19 34q-13 15 -31 20q-8 1 -17 1t-18 -2q-18 -4 -29 -20q-15 -12 -20 -30q-3 -13 -3 -22t3 -20q5 -20 20 -33zM92 358l-42 44l38 40l45 -43q8 6 29 12q17 5 36 5q15 0 32 -4
q22 -7 31 -14l43 45l39 -41l-40 -44q9 -14 15 -35q3 -14 3 -32q0 -17 -3 -32q-6 -22 -14 -34l39 -46l-39 -40l-43 44q-9 -8 -31 -13q-15 -6 -33 -6q-19 0 -34 6q-22 5 -31 13l-45 -44l-37 40l41 45q-9 13 -16 37q-4 14 -4 30t5 32q5 23 16 35z" />
    <glyph glyph-name="yen" unicode="&#xa5;" horiz-adv-x="662"
d="M269 267l-244 474h75l224 -450h-16l234 450h74l-253 -474h176v-53h-191v-34h191v-53h-191v-128h-65v128h-181v53h181v34h-181v53h167z" />
    <glyph glyph-name="brokenbar" unicode="&#xa6;" horiz-adv-x="163"
d="M49 817h65v-358h-65v358zM49 197h65v-358h-65v358z" />
    <glyph glyph-name="section" unicode="&#xa7;" horiz-adv-x="514"
d="M66 11v52l215 -1q120 0 120 66v54q-3 41 -74 53l-133 25q-144 38 -144 109v118l64 -18v-100q0 -25 98 -50l128 -24q120 -21 125 -110v-57q0 -125 -183 -125zM448 749v-53l-216 1q-119 0 -119 -65v-55q4 -41 73 -53l134 -25q145 -38 145 -109v-118l-65 18v100q0 25 -98 51
l-130 24q-118 20 -122 109v58q0 124 182 124z" />
    <glyph glyph-name="dieresis" unicode="&#xa8;" horiz-adv-x="424"
d="M68 604v83h87v-83h-87zM267 604v83h89v-83h-89z" />
    <glyph glyph-name="copyright" unicode="&#xa9;" horiz-adv-x="860"
d="M429 63q68 0 121.5 23.5t92 66.5t58.5 100t20 124q0 66 -20 122.5t-58.5 100t-92 66.5t-121.5 23q-67 0 -121 -23t-92 -66.5t-58.5 -100t-20.5 -122.5q0 -67 20.5 -124t58.5 -100t92 -66.5t121 -23.5zM429 1q-82 0 -149.5 30t-114 79.5t-73.5 118.5t-27 148q0 77 27 146
t73.5 119t114 79.5t149.5 29.5t150 -29t114.5 -79.5t73.5 -118.5t27 -147t-27 -148t-73.5 -118.5t-114.5 -79.5t-150 -30zM574 225q-51 -62 -136 -62q-166 0 -166 212t166 212q89 0 136 -66l-44 -53q-49 51 -90 51q-97 0 -97 -144q0 -145 97 -145q41 0 87 46z" />
    <glyph glyph-name="ordfeminine" unicode="&#xaa;" horiz-adv-x="414"
d="M298 465h-134q-48 -5 -49 -61q-1 -73 55 -72q38 2 128 53v80zM206 667q154 -7 154 -142v-249h-55l-4 45q-78 -44 -131 -45q-116 0 -116 130q2 110 109 115h135v20q-5 65 -92 69q-52 0 -118 -7l-6 54q70 10 124 10z" />
    <glyph glyph-name="guillemotleft" unicode="&#xab;" horiz-adv-x="569"
d="M270 280l169 235h79l-168 -234l168 -236h-78zM50 280l170 235h79l-169 -234l169 -236h-78z" />
    <glyph glyph-name="logicalnot" unicode="&#xac;" horiz-adv-x="533"
d="M484 409v-304h-62v247h-373v57h435z" />
    <glyph glyph-name="registered" unicode="&#xae;" horiz-adv-x="853"
d="M426 63q68 0 121.5 23.5t92 66.5t58.5 100t20 124q0 66 -20 122.5t-58.5 100t-92 66.5t-121.5 23q-67 0 -121 -23t-92 -66.5t-58.5 -100t-20.5 -122.5q0 -67 20.5 -124t58.5 -100t92 -66.5t121 -23.5zM426 1q-82 0 -149.5 30t-114 79.5t-73.5 118.5t-27 148q0 77 27 146
t73.5 119t114 79.5t149.5 29.5q83 0 150.5 -29t114 -79.5t73.5 -118.5t27 -147t-27 -148t-73.5 -118.5t-114 -79.5t-150.5 -30zM430 398q80 0 80 58t-84 58h-62v-116h66zM431 331h-67v-161h-69v409h137q149 -1 149 -123q0 -101 -81 -119l85 -167h-84z" />
    <glyph glyph-name="macron" unicode="&#xaf;" horiz-adv-x="388"
d="M339 658v-49h-290v49h290z" />
    <glyph glyph-name="degree" unicode="&#xb0;" horiz-adv-x="411"
d="M49 578q0 33 11.5 62t32.5 49.5t50 34t62 13.5q32 0 61.5 -13.5t49.5 -34t33 -49.5t13 -62q0 -31 -12.5 -60t-33 -49.5t-50 -34t-61.5 -13.5q-33 0 -62 13.5t-50 34t-32.5 49.5t-11.5 60zM108 578q0 -41 26.5 -72.5t70.5 -31.5q43 0 71 31.5t28 72.5q0 42 -28 74t-71 32
q-44 0 -70.5 -32t-26.5 -74z" />
    <glyph glyph-name="plusminus" unicode="&#xb1;" horiz-adv-x="539"
d="M241 341h-191v54h191v213h58v-213h189v-54h-189v-212h-58v212zM490 57v-55h-441v55h441z" />
    <glyph glyph-name="uni00B2" unicode="&#xb2;" horiz-adv-x="410"
d="M361 291h-312v30q4 98 62 146l135 97q37 27 40 54v12q-5 56 -41 68q-28 10 -45 10q-57 -3 -141 -5v55q81 9 139 10q36 0 72 -15q73 -28 81 -121v-15q-1 -52 -65 -98l-132 -98q-39 -34 -39 -70h246v-60z" />
    <glyph glyph-name="uni00B3" unicode="&#xb3;" horiz-adv-x="445"
d="M253 500h-152v57h152q30 5 34 29q13 87 -12 109q-20 16 -89 16l-126 -6v55l125 8q98 -1 133 -33q29 -24 32 -87q8 -112 -52 -118q60 -15 52 -118q-3 -65 -32 -89q-35 -31 -133 -32l-136 7v55l137 -5q69 0 89 16q25 22 12 110q-4 23 -34 26z" />
    <glyph glyph-name="acute" unicode="&#xb4;" horiz-adv-x="338"
d="M135 575h-83l133 149h101z" />
    <glyph glyph-name="mu" unicode="&#xb5;" horiz-adv-x="562"
d="M49 553h66v-281q0 -86 53.5 -145t109.5 -59q55 0 112 55t57 118v312h66v-540h-59v88q-55 -85 -176 -91q-114 3 -164 87v-323h-65v779z" />
    <glyph glyph-name="paragraph" unicode="&#xb6;" horiz-adv-x="574"
d="M340 705v-704h-61v318h1q-48 0 -90 11.5t-74 37.5t-49.5 66t-17.5 92q0 61 18 106t58 73t100 41q53 10 125 11h175v-756h-62v704h-123z" />
    <glyph glyph-name="periodcentered" unicode="&#xb7;" horiz-adv-x="193"
d="M49 234v93h95v-93h-95z" />
    <glyph glyph-name="periodcentered" unicode="&#x2219;" horiz-adv-x="193"
d="M49 234v93h95v-93h-95z" />
    <glyph glyph-name="cedilla" unicode="&#xb8;" horiz-adv-x="342"
d="M151 -19q-13 -4 17 -3q64 -1 95 -28.5t31 -69.5q0 -56 -43.5 -83.5t-113.5 -27.5q-14 0 -36 1.5t-52 14.5l7 50q44 -14 73 -14q39 -3 71.5 7.5t37.5 52.5q0 28 -19 38t-48 11q-21 0 -33.5 -2.5t-41.5 -15.5l-16 20l37 126h63z" />
    <glyph glyph-name="uni00B9" unicode="&#xb9;" horiz-adv-x="261"
d="M212 291h-62v415l-101 -17v56l122 22h41v-476z" />
    <glyph glyph-name="ordmasculine" unicode="&#xba;" horiz-adv-x="408"
d="M359 573v-83q-6 -193 -144 -193h-18q-143 0 -148 193v83q5 195 148 195h18q138 0 144 -195zM197 714q-86 0 -91 -144v-78q5 -143 91 -143h18q81 0 86 143v78q-5 144 -86 144h-18z" />
    <glyph glyph-name="guillemotright" unicode="&#xbb;" horiz-adv-x="570"
d="M130 45h-79l169 236l-169 234h80l169 -235zM350 45h-78l168 236l-168 234h79l169 -235z" />
    <glyph glyph-name="onequarter" unicode="&#xbc;" horiz-adv-x="776"
d="M690 147h46v-54h-46v-98h-61v98h-222v25q0 21 9 37l206 286q17 24 36 24h32v-318zM629 359l-146 -212h146v212zM203 281h-62v415l-101 -17v56l122 22h41v-476zM110 -2l486 744h70l-487 -744h-69z" />
    <glyph glyph-name="onehalf" unicode="&#xbd;" horiz-adv-x="861"
d="M203 281h-62v415l-101 -17v56l122 22h41v-476zM110 -2l486 744h70l-487 -744h-69zM821 0h-304v30q5 94 61 141l129 94q38 26 41 53v11q-7 53 -42 65q-26 9 -42 10q-55 -3 -136 -7v56q78 9 134 9q35 0 69 -14q71 -28 80 -117v-15q-2 -50 -63 -95l-128 -94q-39 -33 -39 -68
h240v-59z" />
    <glyph glyph-name="threequarters" unicode="&#xbe;" horiz-adv-x="842"
d="M244 481h-152v57h152q29 4 33 28q14 88 -12 109q-19 16 -89 16l-126 -5v55l125 7q98 -1 133 -32q30 -24 33 -87q-1 -110 -33 -118q41 -4 33 -119q-3 -64 -33 -88q-35 -31 -133 -32l-135 7v55l136 -5q70 0 89 15q26 23 12 111q-4 22 -33 26zM757 147h45v-54h-45v-98h-61
v98h-225v25q0 21 11 37l205 286q18 24 37 24h33v-318zM696 359l-147 -212h147v212zM185 -2l486 744h70l-486 -744h-70z" />
    <glyph glyph-name="questiondown" unicode="&#xbf;" horiz-adv-x="529"
d="M480 -173q-119 -21 -223 -21q-208 3 -208 177v33q0 100 130 147q79 45 79 120v74h62v-77q0 -116 -112 -168q-97 -54 -97 -96v-33q0 -115 151 -115q98 0 218 11v-52zM259 436v113h59v-113h-59z" />
    <glyph glyph-name="Agrave" unicode="&#xc0;" horiz-adv-x="603"
d="M535 -1l-82 228h-301l-82 -228h-60l231 704q13 39 56 39h10q44 0 56 -39l232 -704h-60zM438 283l-139 398v0l-131 -398h270zM126 914h102l132 -149h-82z" />
    <glyph glyph-name="Aacute" unicode="&#xc1;" horiz-adv-x="603"
d="M535 -1l-82 228h-301l-82 -228h-60l231 704q13 39 56 39h10q44 0 56 -39l232 -704h-60zM438 283l-139 398v0l-131 -398h270zM350 765h-83l133 149h101z" />
    <glyph glyph-name="Acircumflex" unicode="&#xc2;" horiz-adv-x="603"
d="M535 -1l-82 228h-301l-82 -228h-60l231 704q13 39 56 39h10q44 0 56 -39l232 -704h-60zM438 283l-139 398v0l-131 -398h270zM530 765h-81l-115 88l-115 -88h-80l170 148h52z" />
    <glyph glyph-name="Atilde" unicode="&#xc3;" horiz-adv-x="643"
d="M535 -1l-82 228h-301l-82 -228h-60l231 704q13 39 56 39h10q44 0 56 -39l232 -704h-60zM438 283l-139 398v0l-131 -398h270zM116 825q21 24 49.5 43t65.5 19q22 0 44.5 -9t42.5 -18l37 -17t35 -8q14 0 26 6.5t39 37.5l40 -50q-23 -24 -51 -41.5t-62 -17.5q-25 0 -47.5 8
t-42 18t-36.5 16.5t-33 6.5q-18 0 -29.5 -7t-38.5 -35z" />
    <glyph glyph-name="Adieresis" unicode="&#xc4;" horiz-adv-x="603"
d="M535 -1l-82 228h-301l-82 -228h-60l231 704q13 39 56 39h10q44 0 56 -39l232 -704h-60zM438 283l-139 398v0l-131 -398h270zM175 794v83h87v-83h-87zM374 794v83h89v-83h-89z" />
    <glyph glyph-name="Aring" unicode="&#xc5;" horiz-adv-x="608"
d="M438 283l-139 398v0l-131 -398h270zM291 742h21q20 2 31 14q16 17 16 50q0 34 -15 50t-43 16q-26 0 -41 -16t-15 -50q0 -33 16 -50q12 -12 30 -14zM362 701q5 -6 1 2l232 -704h-60l-82 228h-301l-82 -228h-60l231 704q-1 -4 0 -2q-9 4 -25 21q-34 33 -34 84
q0 53 33.5 86.5t85.5 33.5q54 0 87.5 -33.5t33.5 -86.5q0 -51 -33 -84q-16 -17 -27 -21z" />
    <glyph glyph-name="AE" unicode="&#xc6;" horiz-adv-x="1068"
d="M533 283v398h-13l-254 -398h267zM598 3v-4h-59v119q-1 11 -1 22v87h-306l-147 -228h-75l454 706q12 37 56 37h9q44 0 52 -23v9q8 14 98 14l353 -9v-46h-353q-81 0 -81 -87v-203h349v-54h-349v-203q0 -86 81 -86h352v-47l-352 -8q-78 0 -81 4z" />
    <glyph glyph-name="Ccedilla" unicode="&#xc7;" horiz-adv-x="579"
d="M294 54q126 2 244 15v-46q-116 -17 -248 -22q-20 0 -23 1l-2 -5q-13 -2 17 -1q64 -1 95 -29t31 -70q0 -55 -44 -83t-111 -28q-15 0 -37.5 1.5t-53.5 14.5l7 50q45 -14 74 -14q40 -2 72.5 8t37.5 52q-1 28 -20.5 38t-46.5 11q-21 0 -34 -2.5t-43 -14.5l-14 19l18 62
q-180 37 -180 360q0 371 257 371q131 -3 249 -20v-48q-119 13 -245 14q-202 0 -202 -317q0 -277 153 -311q19 -6 49 -6z" />
    <glyph glyph-name="Egrave" unicode="&#xc8;" horiz-adv-x="592"
d="M554 687h-354q-82 0 -82 -87v-203h349v-54h-349v-203q0 -86 82 -86h352v-47l-352 -8q-142 0 -142 141v460q1 142 142 142l354 -9v-46zM197 894h102l132 -149h-82z" />
    <glyph glyph-name="Eacute" unicode="&#xc9;" horiz-adv-x="592"
d="M554 687h-354q-82 0 -82 -87v-203h349v-54h-349v-203q0 -86 82 -86h352v-47l-352 -8q-142 0 -142 141v460q1 142 142 142l354 -9v-46zM281 745h-83l133 149h101z" />
    <glyph glyph-name="Ecircumflex" unicode="&#xca;" horiz-adv-x="592"
d="M554 687h-354q-82 0 -82 -87v-203h349v-54h-349v-203q0 -86 82 -86h352v-47l-352 -8q-142 0 -142 141v460q1 142 142 142l354 -9v-46zM540 755h-81l-115 88l-115 -88h-80l170 148h52z" />
    <glyph glyph-name="Edieresis" unicode="&#xcb;" horiz-adv-x="592"
d="M554 687h-354q-82 0 -82 -87v-203h349v-54h-349v-203q0 -86 82 -86h352v-47l-352 -8q-142 0 -142 141v460q1 142 142 142l354 -9v-46zM168 794v83h87v-83h-87zM367 794v83h89v-83h-89z" />
    <glyph glyph-name="Igrave" unicode="&#xcc;" horiz-adv-x="114"
d="M136 742v-743h-59v743h59zM-33 924h102l132 -149h-82z" />
    <glyph glyph-name="Iacute" unicode="&#xcd;" horiz-adv-x="113"
d="M67 742v-743h-59v743h59zM50 775h-83l133 149h101z" />
    <glyph glyph-name="Icircumflex" unicode="&#xce;" horiz-adv-x="272"
d="M183 742v-743h-59v743h59zM358 768h-81l-115 88l-115 -88h-80l170 148h52z" />
    <glyph glyph-name="Idieresis" unicode="&#xcf;" horiz-adv-x="213"
d="M150 742v-743h-59v743h59zM-34 804v83h87v-83h-87zM165 804v83h89v-83h-89z" />
    <glyph glyph-name="Eth" unicode="&#xd0;" horiz-adv-x="687"
d="M132 398h209v-47h-209v-303h228q198 0 198 323q0 322 -198 322h-228v-295zM17 351v47h57v347h286q258 0 258 -374q0 -373 -258 -373h-286v353h-57z" />
    <glyph glyph-name="Ntilde" unicode="&#xd1;" horiz-adv-x="730"
d="M85 1v705q0 37 49 37h18q34 0 47 -33l319 -653h-1v685h60v-705q0 -36 -50 -36h-16q-29 0 -47 40l-318 649h-2v-689h-59zM168 845q21 24 49.5 43t65.5 19q22 0 44.5 -9t42.5 -18l37 -17t35 -8q14 0 26 6.5t39 37.5l40 -50q-23 -24 -51 -41.5t-62 -17.5q-25 0 -47.5 8
t-42 18t-36.5 16.5t-33 6.5q-18 0 -29.5 -7t-38.5 -35z" />
    <glyph glyph-name="Ograve" unicode="&#xd2;" horiz-adv-x="663"
d="M586 420v-97q0 -322 -244 -322h-65q-244 0 -244 322v97q0 322 244 322h65q244 0 244 -322zM276 687q-184 0 -184 -270v-92q0 -271 184 -271h71q179 0 179 271v92q0 270 -179 270h-71zM143 924h102l132 -149h-82z" />
    <glyph glyph-name="Oacute" unicode="&#xd3;" horiz-adv-x="663"
d="M586 420v-97q0 -322 -244 -322h-65q-244 0 -244 322v97q0 322 244 322h65q244 0 244 -322zM276 687q-184 0 -184 -270v-92q0 -271 184 -271h71q179 0 179 271v92q0 270 -179 270h-71zM307 775h-83l133 149h101z" />
    <glyph glyph-name="Ocircumflex" unicode="&#xd4;" horiz-adv-x="663"
d="M586 420v-97q0 -322 -244 -322h-65q-244 0 -244 322v97q0 322 244 322h65q244 0 244 -322zM276 687q-184 0 -184 -270v-92q0 -271 184 -271h71q179 0 179 271v92q0 270 -179 270h-71zM536 775h-81l-115 88l-115 -88h-80l170 148h52z" />
    <glyph glyph-name="Otilde" unicode="&#xd5;" horiz-adv-x="663"
d="M586 420v-97q0 -322 -244 -322h-65q-244 0 -244 322v97q0 322 244 322h65q244 0 244 -322zM276 687q-184 0 -184 -270v-92q0 -271 184 -271h71q179 0 179 271v92q0 270 -179 270h-71zM127 855q21 24 49.5 43t65.5 19q22 0 44.5 -9t42.5 -18l37 -17t35 -8q14 0 26 6.5
t39 37.5l40 -50q-23 -24 -51 -41.5t-62 -17.5q-25 0 -47.5 8t-42 18t-36.5 16.5t-33 6.5q-18 0 -29.5 -7t-38.5 -35z" />
    <glyph glyph-name="Odieresis" unicode="&#xd6;" horiz-adv-x="663"
d="M586 420v-97q0 -322 -244 -322h-65q-244 0 -244 322v97q0 322 244 322h65q244 0 244 -322zM276 687q-184 0 -184 -270v-92q0 -271 184 -271h71q179 0 179 271v92q0 270 -179 270h-71zM174 804v83h87v-83h-87zM373 804v83h89v-83h-89z" />
    <glyph glyph-name="multiply" unicode="&#xd7;" horiz-adv-x="469"
d="M235 297l-138 -142l-46 47l137 143l-138 144l47 46l138 -143l139 143l45 -48l-138 -142l138 -143l-46 -47z" />
    <glyph glyph-name="Oslash" unicode="&#xd8;" horiz-adv-x="655"
d="M416 675q-22 12 -69 12h-71q-184 0 -184 -270v-92q0 -180 62 -226zM205 66q22 -12 71 -12h71q179 0 179 271v92q0 178 -59 224zM491 695q95 -67 95 -275v-97q0 -322 -244 -322h-65q-64 0 -96 15l-38 -84l-54 27l40 87q-96 66 -96 277v97q0 322 244 322h65q67 0 98 -16
l36 79l54 -25z" />
    <glyph glyph-name="Ugrave" unicode="&#xd9;" horiz-adv-x="678"
d="M129 742v-482q0 -203 190 -203h19q195 0 195 203v482h59v-482q0 -258 -254 -258h-19q-249 0 -249 258v482h59zM181 924h102l132 -149h-82z" />
    <glyph glyph-name="Uacute" unicode="&#xda;" horiz-adv-x="678"
d="M129 742v-482q0 -203 190 -203h19q195 0 195 203v482h59v-482q0 -258 -254 -258h-19q-249 0 -249 258v482h59zM335 775h-83l133 149h101z" />
    <glyph glyph-name="Ucircumflex" unicode="&#xdb;" horiz-adv-x="678"
d="M129 742v-482q0 -203 190 -203h19q195 0 195 203v482h59v-482q0 -258 -254 -258h-19q-249 0 -249 258v482h59zM554 775h-81l-115 88l-115 -88h-80l170 148h52z" />
    <glyph glyph-name="Udieresis" unicode="&#xdc;" horiz-adv-x="678"
d="M129 742v-482q0 -203 190 -203h19q195 0 195 203v482h59v-482q0 -258 -254 -258h-19q-249 0 -249 258v482h59zM202 814v83h87v-83h-87zM401 814v83h89v-83h-89z" />
    <glyph glyph-name="Yacute" unicode="&#xdd;" horiz-adv-x="560"
d="M98 741l226 -450h-17l235 450h73l-267 -501v-241h-65v241l-258 501h73zM294 775h-83l133 149h101z" />
    <glyph glyph-name="Thorn" unicode="&#xde;" horiz-adv-x="586"
d="M150 622h101q279 0 279 -247q0 -245 -279 -245h-101v-132h-69v738h69v-114zM251 191q216 0 216 185q0 184 -216 184h-101v-369h101z" />
    <glyph glyph-name="germandbls" unicode="&#xdf;" horiz-adv-x="580"
d="M70 541q0 205 201 205h18q185 0 185 -174q0 -61 -67.5 -117.5t-67.5 -80.5q0 -30 101.5 -91t101.5 -134q0 -162 -192 -162h-76v58h76q124 0 124 107q0 39 -100 99t-100 122q0 49 66.5 109t66.5 95q0 114 -118 114h-18q-135 0 -135 -152v-537h-66v539z" />
    <glyph glyph-name="agrave" unicode="&#xe0;" horiz-adv-x="518"
d="M406 277h-216q-86 -7 -89 -104q-2 -125 98 -122q62 2 207 85v141zM252 547q213 -10 213 -195v-353h-49l-8 78q-134 -77 -208 -78q-158 0 -158 175q4 149 147 155h217v47q-9 111 -155 118q-77 0 -159 -10l-4 51q85 12 164 12zM93 724h102l132 -149h-82z" />
    <glyph glyph-name="aacute" unicode="&#xe1;" horiz-adv-x="503"
d="M390 277h-216q-86 -7 -89 -104q-2 -125 98 -122q62 2 207 85v141zM236 547q213 -10 213 -195v-353h-49l-8 78q-134 -77 -208 -78q-158 0 -158 175q4 149 147 155h217v47q-9 111 -155 118q-77 0 -159 -10l-4 51q85 12 164 12zM261 575h-83l133 149h101z" />
    <glyph glyph-name="acircumflex" unicode="&#xe2;" horiz-adv-x="502"
d="M389 277h-216q-86 -7 -89 -104q-2 -125 98 -122q62 2 207 85v141zM235 547q213 -10 213 -195v-353h-49l-8 78q-134 -77 -208 -78q-158 0 -158 175q4 149 147 155h217v47q-9 111 -155 118q-77 0 -159 -10l-4 51q85 12 164 12zM469 575h-81l-115 88l-115 -88h-80l170 148
h52z" />
    <glyph glyph-name="atilde" unicode="&#xe3;" horiz-adv-x="518"
d="M406 277h-216q-86 -7 -89 -104q-2 -125 98 -122q62 2 207 85v141zM252 547q213 -10 213 -195v-353h-49l-8 78q-134 -77 -208 -78q-158 0 -158 175q4 149 147 155h217v47q-9 111 -155 118q-77 0 -159 -10l-4 51q85 12 164 12zM67 635q21 24 49.5 43t65.5 19q22 0 44.5 -9
t42.5 -18l37 -17t35 -8q14 0 26 6.5t39 37.5l40 -50q-23 -24 -51 -41.5t-62 -17.5q-25 0 -47.5 8t-42 18t-36.5 16.5t-33 6.5q-18 0 -29.5 -7t-38.5 -35z" />
    <glyph glyph-name="adieresis" unicode="&#xe4;" horiz-adv-x="518"
d="M406 277h-216q-86 -7 -89 -104q-2 -125 98 -122q62 2 207 85v141zM252 547q213 -10 213 -195v-353h-49l-8 78q-134 -77 -208 -78q-158 0 -158 175q4 149 147 155h217v47q-9 111 -155 118q-77 0 -159 -10l-4 51q85 12 164 12zM104 604v83h87v-83h-87zM303 604v83h89v-83
h-89z" />
    <glyph glyph-name="aring" unicode="&#xe5;" horiz-adv-x="502"
d="M389 277h-216q-86 -7 -89 -104q-2 -125 98 -122q62 2 207 85v141zM235 547q213 -10 213 -195v-353h-49l-8 78q-134 -77 -208 -78q-158 0 -158 175q4 149 147 155h217v47q-9 111 -155 118q-77 0 -159 -10l-4 51q85 12 164 12zM115 686q0 52 32.5 85.5t85.5 33.5
t86.5 -33.5t33.5 -85.5t-33.5 -85.5t-86.5 -33.5t-85.5 33.5t-32.5 85.5zM233 620q28 0 43 16.5t15 49.5t-15 49t-43 16q-26 0 -41 -16t-15 -49t15 -49.5t41 -16.5z" />
    <glyph glyph-name="ae" unicode="&#xe6;" horiz-adv-x="808"
d="M388 277h-217q-86 -7 -87 -104q-3 -125 97 -122q61 2 207 85v141zM767 339q-2 152 -119 153h-81q-118 -1 -121 -229h288q33 3 33 76zM446 41v-42h-50l-6 78q-134 -77 -208 -78q-157 0 -157 175q2 149 146 155h217v47q-9 111 -154 118q-78 0 -160 -10l-4 51q86 12 164 12
q179 -9 193 -75q21 72 142 72h80q172 0 177 -205q-5 -127 -92 -127h-285q12 -160 175 -160q49 0 166 10l22 -46q-89 -19 -190 -19q-157 0 -176 44z" />
    <glyph glyph-name="ccedilla" unicode="&#xe7;" horiz-adv-x="473"
d="M243 44l194 3v-49l-197 -3q-21 0 -25 1l-2 -7q-12 -2 18 -1q64 -1 94.5 -28.5t30.5 -70.5q0 -55 -44 -83t-112 -28q-14 0 -36 2t-53 14l7 51q44 -14 74 -14q39 -3 71.5 7t37.5 52q0 28 -20 38.5t-47 11.5q-22 0 -34 -3t-42 -15l-15 20l18 65q-128 34 -128 263
q0 276 207 276l197 -3v-52l-194 3q-151 0 -151 -224q0 -188 102 -219q19 -5 49 -7z" />
    <glyph glyph-name="egrave" unicode="&#xe8;" horiz-adv-x="525"
d="M106 212q11 -160 174 -160q48 0 167 10l21 -46q-88 -19 -191 -19q-232 0 -232 273q9 274 179 274h82q170 0 176 -205q-6 -127 -92 -127h-284zM423 339q-2 152 -118 153h-83q-117 -1 -119 -229h286q34 3 34 76zM72 724h102l132 -149h-82z" />
    <glyph glyph-name="eacute" unicode="&#xe9;" horiz-adv-x="515"
d="M96 212q11 -160 174 -160q48 0 167 10l21 -46q-88 -19 -191 -19q-232 0 -232 273q9 274 179 274h82q170 0 176 -205q-6 -127 -92 -127h-284zM413 339q-2 152 -118 153h-83q-117 -1 -119 -229h286q34 3 34 76zM236 575h-83l133 149h101z" />
    <glyph glyph-name="ecircumflex" unicode="&#xea;" horiz-adv-x="523"
d="M104 212q11 -160 174 -160q48 0 167 10l21 -46q-88 -19 -191 -19q-232 0 -232 273q9 274 179 274h82q170 0 176 -205q-6 -127 -92 -127h-284zM421 339q-2 152 -118 153h-83q-117 -1 -119 -229h286q34 3 34 76zM483 575h-81l-115 88l-115 -88h-80l170 148h52z" />
    <glyph glyph-name="edieresis" unicode="&#xeb;" horiz-adv-x="523"
d="M104 212q11 -160 174 -160q48 0 167 10l21 -46q-88 -19 -191 -19q-232 0 -232 273q9 274 179 274h82q170 0 176 -205q-6 -127 -92 -127h-284zM421 339q-2 152 -118 153h-83q-117 -1 -119 -229h286q34 3 34 76zM121 604v83h87v-83h-87zM320 604v83h89v-83h-89z" />
    <glyph glyph-name="igrave" unicode="&#xec;" horiz-adv-x="262"
d="M171 548v-550h-66v550h66zM-19 753h104l130 -149h-81z" />
    <glyph glyph-name="iacute" unicode="&#xed;" horiz-adv-x="248"
d="M136 544v-543h-57v543h57zM114 604h-82l131 149h102z" />
    <glyph glyph-name="icircumflex" unicode="&#xee;" horiz-adv-x="331"
d="M195 544v-543h-59v543h59zM359 604h-79l-115 88l-114 -88h-79l159 149l70 -1z" />
    <glyph glyph-name="idieresis" unicode="&#xef;" horiz-adv-x="232"
d="M144 544v-543h-58v543h58zM-28 632v84h87v-84h-87zM171 632v84h89v-84h-89z" />
    <glyph glyph-name="eth" unicode="&#xf0;" horiz-adv-x="603"
d="M477 433q-96 17 -147 17h-74q-164 0 -164 -188v-19q0 -189 145 -189q240 0 240 379zM467 694q69 -52 69 -224v-25q0 -446 -299 -446q-204 0 -204 244v19q0 241 223 241h76q53 -4 145 -16q0 132 -59 172l-116 -84l-32 43l97 70q-33 17 -138 17v55q131 0 190 -34l86 61
l30 -44z" />
    <glyph glyph-name="ntilde" unicode="&#xf1;" horiz-adv-x="569"
d="M124 -1h-59v548h54l4 -62q91 62 138 62h65q175 0 175 -244v-304h-58v304q0 189 -117 189h-64q-37 -2 -138 -69v-424zM86 645q21 24 49.5 43t65.5 19q22 0 44.5 -9t42.5 -18l37 -17t35 -8q14 0 26 6.5t39 37.5l40 -50q-23 -24 -51 -41.5t-62 -17.5q-25 0 -47.5 8t-42 18
t-36.5 16.5t-33 6.5q-18 0 -29.5 -7t-38.5 -35z" />
    <glyph glyph-name="ograve" unicode="&#xf2;" horiz-adv-x="559"
d="M505 301v-58q0 -242 -205 -242h-57q-200 0 -200 242v58q0 243 200 243h57q205 0 205 -243zM243 489q-137 0 -137 -188v-58q0 -189 137 -189h57q145 0 145 189v58q0 188 -145 188h-57zM90 724h102l132 -149h-82z" />
    <glyph glyph-name="oacute" unicode="&#xf3;" horiz-adv-x="549"
d="M495 301v-58q0 -242 -205 -242h-57q-200 0 -200 242v58q0 243 200 243h57q205 0 205 -243zM233 489q-137 0 -137 -188v-58q0 -189 137 -189h57q145 0 145 189v58q0 188 -145 188h-57zM244 575h-83l133 149h101z" />
    <glyph glyph-name="ocircumflex" unicode="&#xf4;" horiz-adv-x="557"
d="M503 301v-58q0 -242 -205 -242h-57q-200 0 -200 242v58q0 243 200 243h57q205 0 205 -243zM241 489q-137 0 -137 -188v-58q0 -189 137 -189h57q145 0 145 189v58q0 188 -145 188h-57zM491 575h-81l-115 88l-115 -88h-80l170 148h52z" />
    <glyph glyph-name="otilde" unicode="&#xf5;" horiz-adv-x="557"
d="M503 301v-58q0 -242 -205 -242h-57q-200 0 -200 242v58q0 243 200 243h57q205 0 205 -243zM241 489q-137 0 -137 -188v-58q0 -189 137 -189h57q145 0 145 189v58q0 188 -145 188h-57zM99 641q21 24 49.5 43t65.5 19q22 0 44.5 -9t42.5 -18l37 -17t35 -8q14 0 26 6.5
t39 37.5l40 -50q-23 -24 -51 -41.5t-62 -17.5q-25 0 -47.5 8t-42 18t-36.5 16.5t-33 6.5q-18 0 -29.5 -7t-38.5 -35z" />
    <glyph glyph-name="odieresis" unicode="&#xf6;" horiz-adv-x="557"
d="M503 301v-58q0 -242 -205 -242h-57q-200 0 -200 242v58q0 243 200 243h57q205 0 205 -243zM241 489q-137 0 -137 -188v-58q0 -189 137 -189h57q145 0 145 189v58q0 188 -145 188h-57zM129 604v83h87v-83h-87zM328 604v83h89v-83h-89z" />
    <glyph glyph-name="divide" unicode="&#xf7;" horiz-adv-x="539"
d="M490 391v-55h-441v55h441zM232 488v131h78v-131h-78zM232 103v131h78v-131h-78z" />
    <glyph glyph-name="oslash" unicode="&#xf8;" horiz-adv-x="549"
d="M318 488q-3 1 -28 1h-57q-137 0 -137 -188v-58q0 -135 50 -163zM374 468l-173 -412q7 -2 32 -2h57q145 0 145 189v58q0 140 -61 167zM341 540l41 99l55 -22l-41 -97q99 -42 99 -219v-58q0 -242 -205 -242h-57q-37 0 -53 5l-35 -86l-55 25l34 82q-91 44 -91 216v58
q0 243 200 243h57q36 0 51 -4z" />
    <glyph glyph-name="ugrave" unicode="&#xf9;" horiz-adv-x="557"
d="M430 547h59v-548h-54l-4 77q-91 -77 -138 -77h-66q-175 0 -175 244v304h58v-304q0 -189 117 -189h66q34 2 137 97v396zM92 724h102l132 -149h-82z" />
    <glyph glyph-name="uacute" unicode="&#xfa;" horiz-adv-x="555"
d="M428 547h59v-548h-54l-4 77q-91 -77 -138 -77h-66q-175 0 -175 244v304h58v-304q0 -189 117 -189h66q34 2 137 97v396zM264 575h-83l133 149h101z" />
    <glyph glyph-name="ucircumflex" unicode="&#xfb;" horiz-adv-x="544"
d="M432 547h59v-548h-54l-4 77q-91 -77 -138 -77h-66q-175 0 -175 244v304h58v-304q0 -189 117 -189h66q34 2 137 97v396zM497 575h-81l-115 88l-115 -88h-80l170 148h52z" />
    <glyph glyph-name="udieresis" unicode="&#xfc;" horiz-adv-x="559"
d="M432 547h59v-548h-54l-4 77q-91 -77 -138 -77h-66q-175 0 -175 244v304h58v-304q0 -189 117 -189h66q34 2 137 97v396zM135 604v83h87v-83h-87zM334 604v83h89v-83h-89z" />
    <glyph glyph-name="yacute" unicode="&#xfd;" horiz-adv-x="528"
d="M293 52l166 495h65l-179 -539q-63 -195 -255 -197v51q150 10 187 136v0q-18 0 -32 34l-215 515h69l195 -480q0 -15 3 -15h-4zM244 575h-83l133 149h101z" />
    <glyph glyph-name="thorn" unicode="&#xfe;" horiz-adv-x="607"
d="M80 762h59v-209h136q273 0 273 -269q0 -287 -273 -287h-136v-228h-59v993zM139 49h136q209 0 209 235q0 217 -209 217h-136v-452z" />
    <glyph glyph-name="ydieresis" unicode="&#xff;" horiz-adv-x="531"
d="M296 52l166 495h65l-179 -539q-63 -195 -255 -197v51q150 10 187 136v0q-18 0 -32 34l-215 515h69l195 -480q0 -15 3 -15h-4zM114 604v83h87v-83h-87zM313 604v83h89v-83h-89z" />
    <glyph glyph-name="dotlessi" unicode="&#x131;" horiz-adv-x="185"
d="M118 544v-543h-57v543h57z" />
    <glyph glyph-name="circumflex" unicode="&#x2c6;" horiz-adv-x="494"
d="M443 575h-81l-115 88l-115 -88h-80l170 148h52z" />
    <glyph glyph-name="caron" unicode="&#x2c7;" horiz-adv-x="498"
d="M265 576l-30 -2l-183 150h91l106 -78l106 78h92z" />
    <glyph glyph-name="uni02C9" unicode="&#x2c9;" horiz-adv-x="379"
d="M339 658v-49h-290v49h290z" />
    <glyph glyph-name="breve" unicode="&#x2d8;" horiz-adv-x="451"
d="M226 567q-25 0 -53 6t-54 22t-44.5 45.5t-25.5 83.5h54q15 -28 19 -39.5t17 -24.5t31.5 -22.5t55.5 -9.5q36 0 56 9.5t31.5 22.5t15.5 24t21 40h52q-7 -54 -25.5 -83.5t-44 -45.5t-53.5 -22t-53 -6z" />
    <glyph glyph-name="dotaccent" unicode="&#x2d9;" horiz-adv-x="257"
 />
    <glyph glyph-name="ring" unicode="&#x2da;" horiz-adv-x="336"
d="M49 686q0 52 32.5 85.5t85.5 33.5t86.5 -33.5t33.5 -85.5t-33.5 -85.5t-86.5 -33.5t-85.5 33.5t-32.5 85.5zM167 620q28 0 43 16.5t15 49.5t-15 49t-43 16q-26 0 -41 -16t-15 -49t15 -49.5t41 -16.5z" />
    <glyph glyph-name="ogonek" unicode="&#x2db;" horiz-adv-x="332"
d="M243 34l-86.5 -68t-33.5 -65q8 -52 21.5 -62.5t66.5 -11.5q7 0 18.5 1t39.5 8l14 -52q-25 -10 -48.5 -13t-49.5 -3q-25 0 -49.5 6t-44.5 19.5t-31 36t-11 50.5q0 36 23.5 79t67.5 75h103z" />
    <glyph glyph-name="tilde" unicode="&#x2dc;" horiz-adv-x="489"
d="M50 845q21 24 49.5 43t65.5 19q22 0 44.5 -9t42.5 -18l37 -17t35 -8q14 0 26 6.5t39 37.5l40 -50q-23 -24 -51 -41.5t-62 -17.5q-25 0 -47.5 8t-42 18t-36.5 16.5t-33 6.5q-18 0 -29.5 -7t-38.5 -35z" />
    <glyph glyph-name="hungarumlaut" unicode="&#x2dd;" horiz-adv-x="527"
d="M134 575h-82l129 149h105zM322 575h-80l129 149h103z" />
    <glyph glyph-name="endash" unicode="&#x2013;" horiz-adv-x="614"
d="M565 312v-55h-516v55h516z" />
    <glyph glyph-name="emdash" unicode="&#x2014;" horiz-adv-x="1105"
d="M1057 312v-55h-1008v55h1008z" />
    <glyph glyph-name="quoteleft" unicode="&#x2018;" horiz-adv-x="278"
d="M180 476h-69l-61 257h71z" />
    <glyph glyph-name="quoteright" unicode="&#x2019;" horiz-adv-x="276"
d="M157 733h69l-62 -257h-66z" />
    <glyph glyph-name="quotesinglbase" unicode="&#x201a;" horiz-adv-x="276"
d="M157 144h69l-62 -256h-66z" />
    <glyph glyph-name="quotedblleft" unicode="&#x201c;" horiz-adv-x="426"
d="M300 476h-67l-62 257h70zM177 476h-66l-61 257h69z" />
    <glyph glyph-name="quotedblright" unicode="&#x201d;" horiz-adv-x="426"
d="M186 733h70l-61 -257h-69zM308 733h68l-61 -257h-66z" />
    <glyph glyph-name="quotedblbase" unicode="&#x201e;" horiz-adv-x="426"
d="M186 157h70l-61 -257h-69zM308 157h68l-61 -257h-66z" />
    <glyph glyph-name="dagger" unicode="&#x2020;" horiz-adv-x="500"
d="M217 438h-168v56h168v265h65v-265h169v-56h-169v-602h-65v602z" />
    <glyph glyph-name="daggerdbl" unicode="&#x2021;" horiz-adv-x="500"
d="M217 184v254h-168v56h168v265h65v-265h169v-56h-169v-254h169v-56h-169v-292h-65v292h-168v56h168z" />
    <glyph glyph-name="bullet" unicode="&#x2022;" horiz-adv-x="377"
d="M68 379q0 25 9 47.5t24.5 38.5t38.5 26t48 10q27 0 48 -10t37.5 -26t26.5 -38.5t10 -47.5t-10 -47t-26.5 -38t-37.5 -26.5t-48 -10.5q-25 0 -48 10.5t-38.5 26.5t-24.5 38t-9 47z" />
    <glyph glyph-name="ellipsis" unicode="&#x2026;" horiz-adv-x="591"
d="M109 114v-113h-59v113h59zM309 114v-113h-59v113h59zM509 114v-113h-59v113h59z" />
    <glyph glyph-name="guilsinglleft" unicode="&#x2039;" horiz-adv-x="350"
d="M50 280l170 235h79l-169 -234l169 -236h-77z" />
    <glyph glyph-name="guilsinglright" unicode="&#x203a;" horiz-adv-x="350"
d="M130 45h-79l169 236l-169 234h80l169 -235z" />
    <glyph glyph-name="fraction" unicode="&#x2044;" horiz-adv-x="656"
d="M48 -2l487 744h70l-485 -744h-72z" />
    <glyph glyph-name="fraction" unicode="&#x2215;" horiz-adv-x="656"
d="M48 -2l487 744h70l-485 -744h-72z" />
    <glyph glyph-name="franc" unicode="&#x20a3;" horiz-adv-x="618"
d="M135 194h192v-45h-192v-150h-60v150h-54v45h54v406q0 142 141 142l354 -9v-46h-354q-81 0 -81 -87v-175h348v-55h-348v-176z" />
    <glyph glyph-name="lira" unicode="&#x20a4;" horiz-adv-x="549"
d="M204 295v-65q-2 -84 -71 -169h359v-56h-439v51q79 106 86 177v62h-83v54h83v62h-83v54h83v46q0 228 199 228h145v-52h-139q-140 0 -140 -176v-46h227v-54h-227v-62h227v-54h-227z" />
    <glyph glyph-name="peseta" unicode="&#x20a7;" horiz-adv-x="964"
d="M49 1v741h294q230 0 230 -227q0 -229 -230 -229h-235v-285h-59zM343 336q171 0 171 179q0 177 -171 177h-235v-356h235zM717 666v-123h195v-51h-195v-345q1 -93 65 -94l133 3v-47l-128 -11q-130 0 -130 159v335h-75v51h75v123h60z" />
    <glyph glyph-name="Euro" unicode="&#x20ac;" horiz-adv-x="674"
d="M119 400h-70v49h73q22 291 255 291q132 -4 248 -21v-48q-117 14 -245 15q-179 0 -198 -237h348v-49h-352v-32v-12h352v-50h-350q14 -254 200 -254q128 1 244 14v-46q-115 -17 -247 -22q-241 0 -256 308h-72v50h70v12v32z" />
    <glyph glyph-name="uni2116" unicode="&#x2116;" horiz-adv-x="1064"
d="M994 181v-50h-416v50h416zM49 1v705q0 37 49 37h18q34 0 47 -33l319 -653h-1v685h60v-705q0 -36 -50 -36h-16q-29 0 -47 40l-318 649h-2v-689h-59zM1015 498v-58q0 -241 -204 -241h-57q-200 0 -200 241v58q0 244 200 244h57q204 0 204 -244zM754 687q-137 0 -137 -189
v-58q0 -188 137 -188h57q146 0 146 188v58q0 189 -146 189h-57z" />
    <glyph glyph-name="trademark" unicode="&#x2122;" horiz-adv-x="828"
d="M358 736v-61h-114v-342h-65v342h-120v61h299zM357 334v382q0 21 24 21h66q20 0 28 -19l92 -254h-2l88 254q10 18 26 18h68q22 0 22 -20v-382h-67v345h4l-92 -258q-11 -22 -28 -22h-39q-20 0 -29 22l-97 248h2v-335h-66z" />
    <glyph glyph-name="partialdiff" unicode="&#x2202;" horiz-adv-x="915"
d="M431 352q-114 65 -209 70q-92 -2 -100 -185q1 -151 110 -152q103 10 145.5 91.5t53.5 175.5zM293 716q208 -6 216 -225q4 -112 -16.5 -200.5t-66.5 -170.5t-191 -95q-185 0 -185 210q3 246 170 254q96 0 220 -71q20 202 -124 238q-10 2 -46 2h-156v56q85 2 179 2z" />
    <glyph glyph-name="Delta" unicode="&#x2206;" horiz-adv-x="710"
d="M307 739h87l266 -738h-610zM568 64l-216 580l-214 -580h430z" />
    <glyph glyph-name="product" unicode="&#x220f;" horiz-adv-x="803"
d="M188 694h-139v53h705v-53h-139v-866h-72v866h-283v-866h-72v866z" />
    <glyph glyph-name="summation" unicode="&#x2211;" horiz-adv-x="620"
d="M284 303l-220 444h504v-53h-407l196 -393l-213 -420h427v-53h-521z" />
    <glyph glyph-name="minus" unicode="&#x2212;" horiz-adv-x="539"
d="M490 382v-55h-441v55h441z" />
    <glyph glyph-name="radical" unicode="&#x221a;" horiz-adv-x="616"
d="M145 334l-95 -30v43l131 60l113 -300l209 692h62l-232 -798h-67z" />
    <glyph glyph-name="infinity" unicode="&#x221e;" horiz-adv-x="744"
d="M339 284q-30 42 -48.5 61.5t-34 31t-30 16t-27.5 4.5q-41 0 -68 -32t-27 -83q0 -52 27.5 -83t66.5 -31q14 0 29 3.5t30.5 15t33.5 32t48 65.5zM403 280q30 -42 49 -62t34.5 -32t29.5 -16t27 -4q43 0 69 32.5t26 82.5q0 52 -26.5 83t-67.5 31q-15 0 -29.5 -3.5
t-29.5 -15.5t-33.5 -32.5t-48.5 -63.5zM370 245q-59 -80 -99.5 -103.5t-75.5 -23.5q-32 0 -59 12t-46.5 34t-30 52t-10.5 66q0 35 11 65.5t31 52.5t47.5 34t58.5 12q37 0 78 -25.5t98 -101.5q59 78 98.5 102t76.5 24q32 0 59 -11.5t46 -33.5t30.5 -52.5t11.5 -66.5
q0 -34 -12 -64.5t-31 -52.5t-46.5 -34.5t-60.5 -12.5q-36 0 -77 25.5t-98 102.5z" />
    <glyph glyph-name="integral" unicode="&#x222b;" horiz-adv-x="549"
d="M245 556q0 207 164 207h92v-48h-83q-115 0 -115 -146v-594q0 -207 -172 -207h-82v48h82q114 0 114 162v578z" />
    <glyph glyph-name="approxequal" unicode="&#x2248;" horiz-adv-x="536"
d="M50 450q25 33 64 52.5t83 19.5q23 0 46 -7l44.5 -14t42 -13t41.5 -6q17 0 34.5 6t51.5 41l27 -44q-29 -29 -62.5 -45.5t-77.5 -16.5q-25 0 -48 6t-45.5 14t-43.5 14.5t-37 6.5q-22 0 -40 -7t-50 -39zM52 270q24 34 63.5 53.5t82.5 19.5q24 0 47 -7t44 -14.5t42 -13.5
t42 -6q17 0 34.5 6t52.5 41l26 -41q-28 -31 -62.5 -47.5t-77.5 -16.5q-24 0 -47.5 6.5t-45.5 13.5l-42.5 13.5t-38.5 6.5q-21 0 -39.5 -6.5t-50.5 -39.5z" />
    <glyph glyph-name="lessequal" unicode="&#x2264;" horiz-adv-x="539"
d="M483 629l2 -63l-360 -182l360 -185l-2 -59l-434 224v42zM490 115v-55h-441v55h441z" />
    <glyph glyph-name="greaterequal" unicode="&#x2265;" horiz-adv-x="539"
d="M489 406v-42l-434 -224l-2 59l361 185l-361 182l2 63zM490 115v-55h-441v55h441z" />
    <glyph glyph-name="Amacron" unicode="&#x100;" horiz-adv-x="643"
d="M535 -1l-82 228h-301l-82 -228h-60l231 704q13 39 56 39h10q44 0 56 -39l232 -704h-60zM438 283l-139 398v0l-131 -398h270zM461 858v-49h-290v49h290z" />
    <glyph glyph-name="amacron" unicode="&#x101;" horiz-adv-x="518"
d="M406 277h-216q-86 -7 -89 -104q-2 -125 98 -122q62 2 207 85v141zM252 547q213 -10 213 -195v-353h-49l-8 78q-134 -77 -208 -78q-158 0 -158 175q4 149 147 155h217v47q-9 111 -155 118q-77 0 -159 -10l-4 51q85 12 164 12zM403 658v-49h-290v49h290z" />
    <glyph glyph-name="Emacron" unicode="&#x112;" horiz-adv-x="592"
d="M554 687h-354q-82 0 -82 -87v-203h349v-54h-349v-203q0 -86 82 -86h352v-47l-352 -8q-142 0 -142 141v460q1 142 142 142l354 -9v-46zM449 858v-49h-290v49h290z" />
    <glyph glyph-name="emacron" unicode="&#x113;" horiz-adv-x="523"
d="M104 212q11 -160 174 -160q48 0 167 10l21 -46q-88 -19 -191 -19q-232 0 -232 273q9 274 179 274h82q170 0 176 -205q-6 -127 -92 -127h-284zM421 339q-2 152 -118 153h-83q-117 -1 -119 -229h286q34 3 34 76zM410 658v-49h-290v49h290z" />
    <glyph glyph-name="Imacron" unicode="&#x12a;" horiz-adv-x="257"
d="M145 742v-743h-59v743h59zM247 858v-49h-290v49h290z" />
    <glyph glyph-name="imacron" unicode="&#x12b;" horiz-adv-x="268"
d="M148 544v-543h-57v543h57zM251 658v-49h-290v49h290z" />
    <glyph glyph-name="Omacron" unicode="&#x14c;" horiz-adv-x="663"
d="M586 420v-97q0 -322 -244 -322h-65q-244 0 -244 322v97q0 322 244 322h65q244 0 244 -322zM276 687q-184 0 -184 -270v-92q0 -271 184 -271h71q179 0 179 271v92q0 270 -179 270h-71zM462 858v-49h-290v49h290z" />
    <glyph glyph-name="omacron" unicode="&#x14d;" horiz-adv-x="557"
d="M503 301v-58q0 -242 -205 -242h-57q-200 0 -200 242v58q0 243 200 243h57q205 0 205 -243zM241 489q-137 0 -137 -188v-58q0 -189 137 -189h57q145 0 145 189v58q0 188 -145 188h-57zM420 658v-49h-290v49h290z" />
    <glyph glyph-name="Umacron" unicode="&#x16a;" horiz-adv-x="678"
d="M129 742v-482q0 -203 190 -203h19q195 0 195 203v482h59v-482q0 -258 -254 -258h-19q-249 0 -249 258v482h59zM488 858v-49h-290v49h290z" />
    <glyph glyph-name="umacron" unicode="&#x16b;" horiz-adv-x="557"
d="M430 547h59v-548h-54l-4 77q-91 -77 -138 -77h-66q-175 0 -175 244v304h58v-304q0 -189 117 -189h66q34 2 137 97v396zM424 658v-49h-290v49h290z" />
    <glyph glyph-name="alt.g" horiz-adv-x="555"
d="M249 546h25q85 -6 131 -57l8 53h83v-586q0 -96 -70 -132q-57 -30 -167 -30q-56 0 -145 10l14 81q70 -11 116 -11q64 0 106 11q56 15 56 78v65l-137 -23h-20q-190 0 -190 163v181q0 197 190 197zM406 113l-1 285q-61 58 -130 62h-26q-96 0 -96 -109v-183q0 -79 96 -78h19z
" />
    <glyph glyph-name="exclamdbl" unicode="&#x203c;" horiz-adv-x="354"
d="M118 121v-120h-68v120h68zM117 744l-5 -539h-58l-5 539h68zM305 121v-120h-69v120h69zM305 744l-6 -539h-57l-7 539h70z" />
    <glyph glyph-name="perthousand" unicode="&#x2030;" horiz-adv-x="1145"
d="M48 571q0 169 163 169q166 0 166 -169v-49q0 -159 -166 -159q-163 0 -163 159v49zM210 418q106 0 106 103v48q0 116 -106 116q-101 0 -101 -116v-48q0 -103 101 -103zM128 -2l487 744h71l-486 -744h-72zM611 52q106 0 106 102v48q0 116 -106 116q-101 0 -101 -116v-48
q0 -102 101 -102zM928 52q108 0 108 102v48q0 116 -108 116q-99 0 -99 -116v-48q0 -102 99 -102zM772 96q-15 -99 -159 -99q-164 0 -164 159v48q0 169 164 169q144 0 159 -106q16 106 159 106q166 0 166 -169v-48q0 -159 -166 -159q-143 0 -159 99z" />
    <glyph glyph-name="estimated" unicode="&#x212e;" horiz-adv-x="579"
d="M472 55q-39 -27 -83.5 -41.5t-92.5 -14.5q-34 0 -66 9.5t-59.5 28t-50 43t-38.5 54.5t-24.5 64t-8.5 71t9.5 71t26.5 64t40.5 54.5t51 43t58 28t61.5 9.5q50 0 93 -20t74.5 -55t49 -82.5t17.5 -102.5v-23h-358v-159q25 -25 57 -38.5t67 -13.5q44 0 86 13.5t89 49.5z
M296 494q-34 0 -65.5 -15t-58.5 -43v-134h246v139q-24 25 -55 39t-67 14z" />
    <glyph glyph-name="notequal" unicode="&#x2260;" horiz-adv-x="546"
d="M265 259l-87 -201l-52 25l77 176h-155v55h179l35 80h-214v55h237l76 175l51 -25l-64 -150h141v-55h-166l-35 -80h201v-55h-224z" />
    <glyph glyph-name="lozenge" unicode="&#x25ca;" horiz-adv-x="586"
d="M267 742h50l220 -373l-218 -371h-50l-220 371zM291 654l-169 -285l171 -285l171 285z" />
    <glyph glyph-name="uniFFFC" unicode="&#xfffc;" horiz-adv-x="987"
d="M45 -130v158h67v-95h89v-63h-156zM784 -130v63h91v95h67v-158h-158zM45 604v144h156v-64h-89v-80h-67zM784 684v64h158v-144h-67v80h-91zM603 684v64h143v-64h-143zM422 684v64h142v-64h-142zM241 684v64h142v-64h-142zM603 -130v63h143v-63h-143zM422 -130v63h142v-63
h-142zM241 -130v63h142v-63h-142zM112 252h-67v128h67v-128zM112 429h-67v127h67v-127zM112 76h-67v126h67v-126zM942 252h-67v128h67v-128zM942 429h-67v127h67v-127zM942 76h-67v126h67v-126zM413 328v-41q0 -131 -99 -131h-26q-100 0 -100 131v41q0 131 100 131h26
q99 0 99 -131zM287 425q-57 0 -57 -98v-40q0 -98 57 -98h28q55 0 55 98v40q0 98 -55 98h-28zM436 160v302h108q92 0 92 -84q0 -54 -51 -63q58 -10 58 -68q-1 -84 -100 -87h-107zM540 331q52 0 52 45q0 50 -52 50h-64v-95h64zM544 195q54 0 54 51q0 52 -47 52h-75v-103h68z
M788 458v-217q-6 -82 -88 -85h-33v36h33q44 0 47 49v217h41z" />
    <glyph glyph-name="uniFFFD" unicode="&#xfffd;" horiz-adv-x="1028"
d="M395 493q71 7 131 7q56 0 56 -28v-20q0 -20 -38 -40q-71 -44 -71 -118v-52h73v50q0 40 41 58q68 38 68 102v20q0 110 -127 111q-61 0 -133 -13v-77zM475 207v-79h71v79h-71zM513 859l466 -489l-466 -489l-464 489z" />
    <glyph glyph-name="florin" unicode="&#x192;" horiz-adv-x="412"
d="M159 6q0 -167 -146 -167l-9 55q95 0 95 115v486h-67v52h67v48q0 167 192 167q42 0 96 -15v-54q-59 18 -96 19q-132 0 -132 -120v-45h195v-52h-195v-489z" />
    </font>
</defs>
</svg>
